<?xml version="1.0" encoding="UTF-8"?>
<svg width="600pt" height="600pt" version="1.1" viewBox="100 -100 800 800" xmlns="http://www.w3.org/2000/svg" xmlns:xlink="http://www.w3.org/1999/xlink">
 <g>
  <path fill="#5BB12F" d="m94.5 319.67-16.332-30.332 46.668-46.668c2.332-2.332 4.668-3.5 8.168-3.5h304.5v37.332h-301z"/>
  <path fill="#5BB12F" d="m211.12 35.211 121.33 210.15-20.207 11.668-121.33-210.15z"/>
  <path fill="#5BB12F" d="m249.67 145.83h23.332v105h-23.332z"/>
  <path fill="#5BB12F" d="m533.17 152.83c-25.668 0-46.668 21-46.668 46.668v58.332c0 18.668-15.168 35-35 35h-47.832c-29.168 0-56 15.168-71.168 40.832l-59.5 103.83c-12.832 22.168-4.668 51.332 17.5 64.168 7 4.668 15.168 5.832 23.332 5.832 16.332 0 32.668-9.332 40.832-23.332l56-98h42c71.168 0 128.33-58.332 128.33-128.33v-58.332c-1.1641-25.668-22.164-46.668-47.828-46.668z"/>
  <path fill="#5BB12F" d="m611.33 438.67h-163.33v-36.168h151.67v-198.33h23.332v222.83c0 7-5.832 11.668-11.668 11.668z"/>
  <path fill="#5BB12F" d="m521.5 11.668c-32.668 0-58.332 25.668-58.332 58.332 0 32.668 25.668 58.332 58.332 58.332 32.668 0 58.332-25.668 58.332-58.332 0-31.5-26.832-58.332-58.332-58.332z"/>
  <path fill="#5BB12F" d="m518 411.83h23.332v124.83h-23.332z"/>
  <path fill="#5BB12F" d="m564.67 548.33h-70c-7 0-11.668-4.668-11.668-11.668s4.668-11.668 11.668-11.668h70c7 0 11.668 4.668 11.668 11.668-0.003907 5.8359-5.8359 11.668-11.668 11.668z"/>
  <use x="70" y="735" xlink:href="#b"/>
  <use x="220.503906" y="735" xlink:href="#a"/>
  <use x="287.953125" y="735" xlink:href="#e"/>
  <use x="350.015625" y="735" xlink:href="#d"/>
  <use x="450.105469" y="735" xlink:href="#b"/>
  <use x="600.609375" y="735" xlink:href="#a"/>
  <use x="628.496094" y="735" xlink:href="#c"/>
 </g>
</svg>
