<?xml version="1.0" encoding="UTF-8"?>
<svg width="600pt" height="600pt" version="1.1" viewBox="0 0 600 600" xmlns="http://www.w3.org/2000/svg" xmlns:xlink="http://www.w3.org/1999/xlink">
 <g>
  <path fill="#5BB12F" d="m356.27 372.11c0 3.457-2.8008 6.2617-6.2617 6.2617-3.457 0-6.2578-2.8047-6.2578-6.2617s2.8008-6.2617 6.2578-6.2617c3.4609 0 6.2617 2.8047 6.2617 6.2617"/>
  <path fill="#5BB12F" d="m448.14 441.25h-196.29c-2.7656 0-5.0078 2.2578-5.0078 5.0352 0 2.7891 2.2344 5.0352 5.0078 5.0352h196.29c2.7617 0 4.9961-2.2578 4.9961-5.0391-0.019532-2.7773-2.2461-5.0312-5.0039-5.0312z"/>
  <path fill="#5BB12F" d="m194.79 349.08c0 6.2578-9.3867 6.2578-9.3867 0 0-6.2578 9.3867-6.2578 9.3867 0"/>
  <path fill="#5BB12F" d="m514.61 349.08c0 6.2578-9.3828 6.2578-9.3828 0 0-6.2578 9.3828-6.2578 9.3828 0"/>
  <path fill="#5BB12F" d="m583.52 400.94h-128.86l0.48047-2.2383h120.35c4.8789 0 8.8359-3.9492 8.8359-8.8359l17.676-83.133c0-4.8789-3.9609-8.8359-8.8359-8.8359h-13.383c-8.1328-26.258-22.527-27.211-25.672-27.945-0.37109-0.089844-0.75-0.16797-1.125-0.23438-9.6992-8.9727-3.0781-46.406-3.0781-46.406 0-11.934-1.6953-21.102-4.375-28.172l-1.2539-12.641 4.1953-2.4375 2.1406-1.2305 8.9141-5.1641c0.55469-0.55859 0.55469-1.4609 0-2.0156l-47.414-19.73c-0.56641-0.55469-1.4688-0.55469-2.0156 0l-47.41 19.73c-0.55859 0.55469-0.55859 1.457 0 2.0156l3.5352 2.043-0.22266 3.1211c-1.2148 0.20703-2.1445 1.2617-2.1445 2.5273 0 1.1484 0.75781 2.1211 1.7852 2.4453l-2.0703 28.965 2.8633 8.5664 2.8555-8.5664-2.0781-28.965c1.043-0.33594 1.793-1.3008 1.793-2.4453 0-1.2656-0.92969-2.3242-2.1445-2.5273l-0.20312-2.8711 4.9453 2.8672 0.20313 0.11719 3.9297 2.2773-1.0039 12.75c-2.9297 7.2188-4.8086 16.75-4.8086 29.344 0 0 6.6289 37.438-3.0859 46.406-0.375 0.074219-0.75781 0.15234-1.1328 0.23438-3.0781 0.71875-16.957 1.7148-25.172 26.516-11.07-27.746-27.719-28.965-31.578-29.863-0.50391-0.11719-1.0078-0.22266-1.5117-0.32031-12.941-11.957-4.1055-61.875-4.1055-61.875 0-15.91-2.2617-28.129-5.8281-37.566l-1.6875-16.852 5.6055-3.2461 2.8438-1.6406 11.891-6.8828c0.73828-0.75 0.73828-1.9492 0-2.6875l-63.219-26.305c-0.74609-0.73828-1.9492-0.73828-2.6836 0l-63.219 26.305c-0.74609 0.73828-0.74609 1.9414 0 2.6875l4.7148 2.7227-0.30078 4.1602c-1.6172 0.27344-2.8555 1.6758-2.8555 3.3711 0 1.5234 1.0078 2.8242 2.3867 3.2656l-2.7617 38.617 3.8086 11.418 3.8086-11.418-2.7617-38.617c1.3828-0.44922 2.3867-1.7344 2.3867-3.2656 0-1.6953-1.2383-3.0977-2.8516-3.3711l-0.28125-3.832 6.6016 3.8242 0.26953 0.15234 5.2422 3.0352-1.3398 17c-3.9023 9.6328-6.418 22.34-6.418 39.121 0 0 8.832 49.918-4.1055 61.875-0.51562 0.10156-1.0195 0.20703-1.5117 0.32031-3.8633 0.90234-20.512 2.1172-31.586 29.863-8.2109-24.801-22.102-25.793-25.172-26.516-0.375-0.089844-0.75781-0.16797-1.1328-0.23438-9.7031-8.9727-3.0781-46.406-3.0781-46.406 0-11.934-1.7031-21.102-4.375-28.172l-1.2656-12.641 4.207-2.4375 2.1328-1.2305 8.9219-5.1641c0.55469-0.55859 0.55469-1.4609 0-2.0156l-47.414-19.73c-0.55859-0.55469-1.4609-0.55469-2.0117 0l-47.422 19.73c-0.55469 0.55469-0.55469 1.457 0 2.0156l3.5391 2.043-0.23047 3.1211c-1.2148 0.20703-2.1406 1.2617-2.1406 2.5273 0 1.1484 0.75 2.1211 1.7852 2.4453l-2.0703 28.965 2.8555 8.5664 2.8555-8.5664-2.0664-28.965c1.0352-0.33594 1.7812-1.3008 1.7812-2.4453 0-1.2656-0.92578-2.3242-2.1328-2.5273l-0.21094-2.8711 4.957 2.8672 0.20312 0.11719 3.9258 2.2773-1.0078 12.75c-2.9297 7.2188-4.8086 16.75-4.8086 29.344 0 0 6.625 37.438-3.0781 46.406-0.37891 0.074219-0.76172 0.15234-1.125 0.23438-3.1523 0.73438-17.535 1.6875-25.672 27.945l-13.41 0.007812c-4.8711-0.011718-8.8242 3.9453-8.8242 8.8242l17.664 83.137c0 4.8789 3.9492 8.8242 8.832 8.8242h120.36l0.47656 2.2383-128.85 0.003906c-2.0781 0-3.7539 1.6953-3.7539 3.7812 0 2.0938 1.6758 3.7734 3.7539 3.7734h130.46l3.8242 18.004c0 6.5 5.2656 11.77 11.777 11.77h174.91c6.5078 0 11.789-5.2656 11.789-11.781l3.8242-17.992h130.46c2.0664 0 3.7539-1.6914 3.7539-3.7812-0.019532-2.0781-1.6914-3.7695-3.7578-3.7695zm-104.48-179.79c0.16797-0.125 0.35938-0.20703 0.55859-0.24609 0.46875-0.078125 0.94531 0.09375 1.418 0.48047h0.003906c0-0.003906 0-0.042968 0.011719-0.11328 0.15625-1.5859 2.2695-19.336 15.559-18.105l40.621 20.914 3.2969-3.1758c0.11719 0.015625 0.22266 0.054687 0.33594 0.10547 1.4492 0.67578 2.0664 4.0664 1.3711 7.918-0.52734 2.9609-1.6797 5.3984-2.9102 6.4414-0.48828 0.41406-0.99609 0.60937-1.4844 0.51953-0.25781-0.042969-0.50781-0.17969-0.72656-0.38672-2.7109 8.4297-7.8945 16.828-14.43 21.875-3.8125 2.9453-8.0938 4.7539-12.605 4.7539-4.5547 0-8.8477-1.8242-12.691-4.8047-6.5-5.0469-11.652-13.418-14.352-21.816-0.23047 0.20703-0.46875 0.33984-0.73828 0.38672-0.56641 0.10156-1.1484-0.17969-1.707-0.74609-1.1484-1.1406-2.1953-3.4492-2.6836-6.2227-0.64453-3.6328-0.13281-6.8516 1.1523-7.7773zm57.09 46.605c0 0.027344 0 0.054688-0.011718 0.089844-0.125 1.0547-0.57813 2.0547-1.3281 3.0078-3.5 4.4648-13.312 10.926-24.875 10.926-11.57 0-21.391-6.457-24.887-10.926-0.74609-0.95312-1.2109-1.9609-1.332-3.0078 0.17969-0.054688 0.58203-0.20703 1.1016-0.44141 0.21094-0.10156 0.45312-0.21094 0.70703-0.33984 2.1055-1.1016 5.2188-3.4336 5.2188-7.5039h0.011719c3.3359 3.3086 7.0508 5.9258 11.02 7.5039 2.6602 1.0586 5.4414 1.6406 8.3047 1.6406 2.8633 0 5.6406-0.58984 8.3047-1.6406 3.9258-1.5625 7.6172-4.1445 10.93-7.4141 0.015625 0.003906 0.039062 0.023437 0.0625 0.035156 0.078125 5.2422 5.3477 7.5469 6.7734 8.0703zm44.082 31.578h12.156c4.8203 0 8.7539 3.8711 8.7539 8.6406l-17.668 80.652c0 4.7812-3.9141 8.6523-8.7539 8.6523l-119.26-0.003906 17.344-81.633c0-6.5-5.2695-11.781-11.781-11.781h-10.293l-5.0078 0.003906h-2.543c-0.49219-1.6055-1.0312-3.0703-1.5508-4.5352l138.6-0.003906zm-271.37-97.793c0.23047-0.16797 0.48828-0.28125 0.75781-0.33203 0.61719-0.10547 1.2539 0.12891 1.8828 0.63672h0.011719c0-0.003906 0-0.0625 0.003906-0.15234 0.21875-2.1094 3.0312-25.777 20.746-24.137l54.168 27.887 4.3945-4.2383c0.15234 0.023437 0.30078 0.078125 0.44141 0.14453 1.9375 0.90234 2.75 5.4102 1.832 10.555-0.69922 3.9492-2.2383 7.1953-3.8867 8.5859-0.64453 0.55469-1.3203 0.8125-1.9727 0.69922-0.35156-0.0625-0.68359-0.23438-0.98047-0.51562-3.6133 11.238-10.523 22.434-19.242 29.164-5.0742 3.9258-10.793 6.332-16.805 6.332-6.0664 0-11.801-2.4375-16.918-6.4062-8.6758-6.7383-15.539-17.891-19.145-29.094-0.29688 0.27344-0.62109 0.45312-0.98047 0.51562-0.74609 0.13281-1.5234-0.23438-2.2734-0.99609-1.5234-1.5195-2.918-4.5977-3.5859-8.2891-0.84766-4.8438-0.15625-9.1328 1.5508-10.359zm76.121 62.133c0 0.039063 0 0.074219-0.011719 0.11719-0.16406 1.3984-0.77734 2.7383-1.7695 4.0039-4.6719 5.9531-17.754 14.566-33.176 14.566-15.43 0-28.52-8.6055-33.18-14.566-0.99609-1.2656-1.6172-2.6094-1.7812-4.0039 0.23438-0.078124 0.77344-0.27344 1.4727-0.58984 0.28516-0.12891 0.59766-0.28516 0.94531-0.46094 2.8125-1.4727 6.9609-4.5703 6.9609-10h0.003906c4.4531 4.4062 9.4062 7.9023 14.688 10 3.5508 1.4102 7.2617 2.1953 11.082 2.1953 3.8125 0 7.5195-0.78516 11.078-2.1953 5.2344-2.0781 10.152-5.5273 14.578-9.8789 0.023438 0.011719 0.054688 0.023437 0.085938 0.039063 0.097656 7.0039 7.125 10.07 9.0234 10.773zm-225.73-42.523c0.16406-0.125 0.35938-0.20703 0.56641-0.24609 0.46484-0.078125 0.94141 0.09375 1.4102 0.48047h0.003907c0-0.003906 0-0.042968 0.003906-0.11328 0.16406-1.5859 2.2695-19.336 15.559-18.105l40.629 20.914 3.3047-3.1758c0.11328 0.015625 0.22266 0.054687 0.33203 0.10547 1.4492 0.67578 2.0664 4.0664 1.3789 7.918-0.53125 2.9609-1.6875 5.3984-2.918 6.4414-0.48047 0.41406-0.99219 0.60937-1.4727 0.51953-0.26953-0.042969-0.51562-0.17969-0.73828-0.38672-2.7109 8.4297-7.8906 16.828-14.43 21.875-3.8086 2.9453-8.0938 4.7539-12.602 4.7539-4.5547 0-8.8555-1.8242-12.691-4.8047-6.5078-5.0469-11.66-13.418-14.363-21.816-0.21094 0.20703-0.46094 0.33984-0.72656 0.38672-0.56641 0.10156-1.1406-0.17969-1.707-0.74609-1.1406-1.1406-2.1953-3.4492-2.6836-6.2227-0.66406-3.6328-0.14844-6.8516 1.1445-7.7773zm57.082 46.605v0.089844c-0.125 1.0547-0.58984 2.0547-1.332 3.0078-3.5 4.4648-13.312 10.926-24.879 10.926-11.562 0-21.387-6.457-24.879-10.926-0.75-0.95312-1.2148-1.9609-1.3398-3.0078 0.17969-0.054688 0.58203-0.20703 1.1016-0.44141 0.21094-0.10156 0.45312-0.21094 0.71094-0.33984 2.1094-1.1016 5.2266-3.4336 5.2266-7.5039h0.003906c3.3359 3.3086 7.0508 5.9258 11.016 7.5039 2.6641 1.0586 5.4492 1.6406 8.3047 1.6406 2.8555 0 5.6445-0.58984 8.3047-1.6406 3.9258-1.5625 7.6172-4.1445 10.93-7.4141 0.023437 0.003906 0.042969 0.023437 0.0625 0.035156 0.082031 5.2422 5.3477 7.5469 6.7695 8.0703zm-91.02 129.52c-4.8281 0-8.7461-3.8711-8.7461-8.6523l-17.672-80.648c0-4.7695 3.9141-8.6406 8.7539-8.6406h150.77c-0.53906 1.4688-1.0625 2.9219-1.5625 4.5352h-17.852c-6.5 0-11.77 5.2734-11.77 11.781l17.344 81.633h-119.26zm326.34 11.219-3.5859 16.34c0 6.3672-5.2266 11.535-11.672 11.535h-172.77c-6.4414 0-11.664-5.168-11.664-11.535l-3.5781-16.34-1.6523-7.5547-0.5-2.2383-0.30859-1.4219-17.523-79.973c0-6.3672 5.2188-11.531 11.672-11.531h219.89c6.4297 0 11.664 5.168 11.664 11.531l-17.523 79.973-0.32031 1.4219-0.48047 2.2383z"/>
  <use x="70" y="644" xlink:href="#x"/>
  <use x="90.550781" y="644" xlink:href="#d"/>
  <use x="104.359375" y="644" xlink:href="#a"/>
  <use x="123.347656" y="644" xlink:href="#l"/>
  <use x="142.242188" y="644" xlink:href="#c"/>
  <use x="155.628906" y="644" xlink:href="#a"/>
  <use x="174.617188" y="644" xlink:href="#k"/>
  <use x="204.410156" y="644" xlink:href="#j"/>
  <use x="224.453125" y="644" xlink:href="#i"/>
  <use x="252.453125" y="644" xlink:href="#h"/>
  <use x="283.335938" y="644" xlink:href="#w"/>
  <use x="292.933594" y="644" xlink:href="#v"/>
  <use x="302.53125" y="644" xlink:href="#g"/>
  <use x="319.195312" y="644" xlink:href="#b"/>
  <use x="338.433594" y="644" xlink:href="#f"/>
  <use x="368.117188" y="644" xlink:href="#u"/>
  <use x="378.53125" y="644" xlink:href="#b"/>
  <use x="397.769531" y="644" xlink:href="#g"/>
  <use x="414.4375" y="644" xlink:href="#a"/>
  <use x="433.425781" y="644" xlink:href="#t"/>
  <use x="453.46875" y="644" xlink:href="#e"/>
  <use x="70" y="672" xlink:href="#s"/>
  <use x="82.183594" y="672" xlink:href="#d"/>
  <use x="95.992188" y="672" xlink:href="#b"/>
  <use x="115.226562" y="672" xlink:href="#r"/>
  <use x="154.152344" y="672" xlink:href="#c"/>
  <use x="167.535156" y="672" xlink:href="#e"/>
  <use x="187.46875" y="672" xlink:href="#a"/>
  <use x="216.207031" y="672" xlink:href="#q"/>
  <use x="239.640625" y="672" xlink:href="#b"/>
  <use x="258.878906" y="672" xlink:href="#p"/>
  <use x="278.8125" y="672" xlink:href="#f"/>
  <use x="308.492188" y="672" xlink:href="#o"/>
  <use x="329.015625" y="672" xlink:href="#d"/>
  <use x="342.820312" y="672" xlink:href="#b"/>
  <use x="362.058594" y="672" xlink:href="#n"/>
  <use x="371.65625" y="672" xlink:href="#a"/>
  <use x="390.648438" y="672" xlink:href="#m"/>
  <use x="407.242188" y="672" xlink:href="#c"/>
 </g>
</svg>
